<svg id="Layer_1" data-name="Layer 1" xmlns="http://www.w3.org/2000/svg" viewBox="0 0 860.70514 858.07838"><path d="M7197.67676,6954.16553q-.00147.88036-2.3125.87207-4.07081-.01318-9.33838-3.44141a49.453,49.453,0,0,1-11.23926-10.543q-4.71166-5.84472-7.59131-15.75586a41.60737,41.60737,0,0,1-1.99951-10.5664q.011-3.2461,1.38623-3.24121.93458.00292,3.12305,3.42089a28.57864,28.57864,0,0,0,5.69775,6.7295l1.37451.05957a16.77,16.77,0,0,0,1.50147-4.78028q.50244-2.30712,1.49267-2.30371,1.65015.0044,1.64551,1.43457-.00219.27685-.08594.96192a9.54469,9.54469,0,0,0-.08642,1.01758q-.06959,20.40527,6.94043,29.33886a20.3204,20.3204,0,0,0,8.67041,5.915C7197.4043,6953.50439,7197.67822,6953.79932,7197.67676,6954.16553Zm15.53125-38.44727a22.6886,22.6886,0,0,1-.42285,3.10645,22.88574,22.88574,0,0,0-.42578,3.82031q-.01318,3.85107.27539,7.94922.28857,4.09863.28808,4.31836a18.81918,18.81918,0,0,1-1.34277,6.51269,33.20452,33.20452,0,0,1-3.543,6.83594q-1.32568,1.86474-2.65234,3.73047-.60937,1.20849-1.21875,2.47168a2.79728,2.79728,0,0,1-2.47852,1.20117,2.42638,2.42638,0,0,1-1.75781-.77539,86.404,86.404,0,0,1-7.34131-8.38574,24.03347,24.03347,0,0,1-2.92236-5.97754,30.00693,30.00693,0,0,1-1.65235-7.458q-.42407-4.95117-.375-19.1416.00439-1.20849.939-1.207,1.70434.00585,2.90576,2.706a18.59921,18.59921,0,0,0,.92871,1.92676,1.46441,1.46441,0,0,0,1.26269.77539q1.48463.00439,2.83887-2.08008a12.81656,12.81656,0,0,0,1.75195-5.5498q.17359-2.52833.34766-5.0586.16992-1.59375,1.21533-1.59082a1.604,1.604,0,0,1,1.59131.7754,49.90321,49.90321,0,0,0,1.24414,6.49414,15.6808,15.6808,0,0,0,2.56739,5.06836q1.42236,1.82079,2.19335,1.82226.82472.00439,1.98926-2.43945,1.16308-2.44336,2.15235-2.44141Q7213.21728,6913.1333,7213.208,6915.71826Zm-10.97949,26.36328a132.90855,132.90855,0,0,0-1.4795-17.88086q-.10693-1.04443-.21289-2.09082c-.07226-.51269-.21777-.7705-.4375-.7705q-.55077-.00294-1.05664,3.57128a76.5379,76.5379,0,0,0-.6416,10.55665,57.66493,57.66493,0,0,0,.89649,11.499q.70239,3.52148,1.47265,3.52441Q7202.19923,6950.49659,7202.22852,6942.08154Zm34.63281-27.1084a29.53515,29.53515,0,0,1-.72852,3.793,72.32469,72.32469,0,0,1-2.44922,8.40723,46.05544,46.05544,0,0,1-8.90429,14.81934,60.71646,60.71646,0,0,1-10.70313,9.64355q-4.522,3.23-5.291,3.22754-.88038-.00292-.877-.93848a8.76114,8.76114,0,0,1,1.76758-2.46875,49.92738,49.92738,0,0,0,4.36621-6.03515q5.91651-9.65919,5.94922-18.90039a36.264,36.264,0,0,0-.28809-4.50977q-.293-2.42139-.292-2.80664a.87457.87457,0,0,1,.99317-.98633q.605.00147,1.47754,2.09473.54492,1.377,1.09082,2.7539.38232.88185.87793.88282.87744.00292,4.80078-4.82422,4.58349-5.59424,7.334-5.584C7236.57129,6913.54248,7236.86328,6914.021,7236.86133,6914.97314Z" transform="translate(-6634.43651 -6637.03127)"/><path d="M7244.916,6947.562l1.06445-3.26269a4.05172,4.05172,0,0,0,3.12988-.03711,10.02868,10.02868,0,0,0,3.05567-3.05078l1.06445-1.47559q3.59766-4.8794,8.17773-5.28223a11.20944,11.20944,0,0,1-4.97168-4.99414,8.28221,8.28221,0,0,1-.4082-6.35156,9.94964,9.94964,0,0,1,5.833-6.35645,13.31343,13.31343,0,0,1,9.57129-.1416,14.36955,14.36955,0,0,1,10.02246,10.78125l-3.207,1.32422q-1.87061-3.89208-4.80762-4.84961a6.344,6.344,0,0,0-4.708.21387,5.1951,5.1951,0,0,0-2.98535,3.21973,4.85429,4.85429,0,0,0,3.08984,6.07714q3.33106,1.08691,10.88086-1.70214l2.49512-.93653q12.31055-4.51758,21.24805-1.60156a19.21292,19.21292,0,0,1,11.38672,9.33008,17.226,17.226,0,0,1,1.32812,14.1084,15.43855,15.43855,0,0,1-9.43359,10.14062q-7.01661,2.72607-16.01367-.209l-1.05469-.34473,1.06445-3.26269a12.71377,12.71377,0,0,0,9.67383-.92774,12.89583,12.89583,0,0,0,5.96973-7.68066,12.5784,12.5784,0,0,0-1.01465-10.30371,14.14344,14.14344,0,0,0-8.37012-6.86914,15.94976,15.94976,0,0,0-10.7041.17187q-5.2998,1.93653-6.67578,6.15527a4.91908,4.91908,0,0,0,.21582,3.8086,4.53411,4.53411,0,0,0,2.78418,2.4209,3.86224,3.86224,0,0,0,3.21093-.11914,4.75564,4.75564,0,0,0,1.97852-2.81836,8.2761,8.2761,0,0,0,.251-3.23633l3.41894-.417a21.87141,21.87141,0,0,1-.55859,8.5332,10.03363,10.03363,0,0,1-4.69531,5.835,8.5492,8.5492,0,0,1-10.76563-1.68848,11.46662,11.46662,0,0,1-2.31836-4.47558,12.44444,12.44444,0,0,1-8.207,4.68847q-4.74609.5669-13.15625-2.17578Zm28.94726-8.31543q-5.11816-.64893-11.46484,5.15723l-.87305.77246a8.81337,8.81337,0,0,1-5.54492,2.67578Q7268.54884,6951.95362,7273.86328,6939.24658Z" transform="translate(-6634.43651 -6637.03127)"/><path d="M7370.12207,7009.82666q-7.18067-5.168-9.52637-9.332a12.44446,12.44446,0,0,1-1.06152-9.3916,11.45551,11.45551,0,0,1-4.98145.77148,8.54718,8.54718,0,0,1-7.71875-7.68945,10.03143,10.03143,0,0,1,1.93457-7.23535,21.89032,21.89032,0,0,1,6.55567-5.49024l1.68359,3.00489a8.30944,8.30944,0,0,0-2.46289,2.11425,4.76909,4.76909,0,0,0-1.10742,3.26075,3.86431,3.86431,0,0,0,1.80078,2.6621,4.53161,4.53161,0,0,0,3.59766.81641,4.91443,4.91443,0,0,0,3.20117-2.07519q2.59131-3.60059,1.02539-9.02051a15.95449,15.95449,0,0,0-6.18164-8.74121,14.15145,14.15145,0,0,0-10.48828-2.69825,12.59056,12.59056,0,0,0-8.91406,5.26661,12.8937,12.8937,0,0,0-2.67286,9.35254,12.71938,12.71938,0,0,0,4.96485,8.35546l-2.00489,2.78614-.90039-.64844q-7.68311-5.52686-9.625-12.79785a15.43744,15.43744,0,0,1,2.61231-13.60352,17.22839,17.22839,0,0,1,12.168-7.25976,19.215,19.215,0,0,1,14.25488,3.67968q7.63183,5.49024,11.25586,18.09278l.71777,2.5664q2.20752,7.74024,5.05176,9.78614a4.85386,4.85386,0,0,0,6.72852-1.09571,5.18949,5.18949,0,0,0,.835-4.31054,6.33869,6.33869,0,0,0-2.60645-3.92481q-2.50781-1.80468-6.75293-1.01562l-.82519-3.3711a14.37009,14.37009,0,0,1,14.61914,1.72168,13.31864,13.31864,0,0,1,5.53808,7.80762,9.94914,9.94914,0,0,1-1.68652,8.46094,8.28164,8.28164,0,0,1-5.36523,3.42187,11.20884,11.20884,0,0,1-6.96582-1.06347q2.37889,3.93456.5664,9.71972l-.5625,1.73047a9.98326,9.98326,0,0,0-.65722,4.26758,4.05094,4.05094,0,0,0,1.81836,2.54687l-2.00391,2.78614Zm-.91016-4.543a8.81007,8.81007,0,0,1-1.11523-6.05566l.1084-1.16114q.936-8.55176-2.60938-12.29785Q7358.47949,6997.561,7369.21191,7005.28369Z" transform="translate(-6634.43651 -6637.03127)"/><path d="M7383.13281,7021.12451l2.76465-2.03418a4.05208,4.05208,0,0,0,2.56641,1.791,10.00158,10.00158,0,0,0,4.25976-.70215l1.72559-.58106q5.76415-1.87353,9.72363.46387a11.19916,11.19916,0,0,1-1.13574-6.9541,8.27712,8.27712,0,0,1,3.36426-5.40234,9.95132,9.95132,0,0,1,8.44336-1.77442,13.30848,13.30848,0,0,1,7.86425,5.4541,14.37045,14.37045,0,0,1,1.877,14.60157l-3.37891-.79q.74414-4.25391-1.08691-6.74219a6.34729,6.34729,0,0,0-3.95313-2.56543,5.19762,5.19762,0,0,0-4.30176.88086,4.85277,4.85277,0,0,0-1.02343,6.74023q2.07714,2.82129,9.83886,4.94825l2.57325.69043q12.64012,3.49218,18.21093,11.06347a19.21567,19.21567,0,0,1,3.83106,14.21387,17.23693,17.23693,0,0,1-7.13184,12.24609,15.43575,15.43575,0,0,1-13.57324,2.75586q-7.292-1.86621-12.89941-9.48926l-.65821-.89355,2.76465-2.03418a12.72118,12.72118,0,0,0,8.40723,4.876,12.89671,12.89671,0,0,0,9.32422-2.77149,12.58091,12.58091,0,0,0,5.17187-8.96972,14.15,14.15,0,0,0-2.80957-10.458,15.94562,15.94562,0,0,0-8.80566-6.08887q-5.436-1.51025-9.00977,1.12012a4.922,4.922,0,0,0-2.041,3.22265,4.53438,4.53438,0,0,0,.85546,3.58887,3.86665,3.86665,0,0,0,2.67969,1.77246,4.75475,4.75475,0,0,0,3.24805-1.14258,8.27718,8.27718,0,0,0,2.08984-2.48437l3.02246,1.65137a21.90766,21.90766,0,0,1-5.42089,6.61328,10.02926,10.02926,0,0,1-7.21387,2.01172,8.54362,8.54362,0,0,1-7.77149-7.6377,11.42732,11.42732,0,0,1,.71973-4.98828,12.44884,12.44884,0,0,1-9.40332-.96387q-4.188-2.30127-9.43164-9.42675Zm28.38086,10.083q-3.78516-3.50391-12.32617-2.47754l-1.15918.12012a8.81088,8.81088,0,0,1-6.06836-1.05078Q7399.79835,7038.45019,7411.51367,7031.20752Z" transform="translate(-6634.43651 -6637.03127)"/><path d="M7448.59082,7144.6792q-2.81982-8.38623-2.2959-13.13672a12.4421,12.4421,0,0,1,4.61426-8.249,11.43663,11.43663,0,0,1-4.49609-2.27735,8.54323,8.54323,0,0,1-1.78614-10.748,10.02688,10.02688,0,0,1,5.791-4.749,21.89826,21.89826,0,0,1,8.52734-.63672l-.38476,3.42286a8.28485,8.28485,0,0,0-3.2334.28125,4.75264,4.75264,0,0,0-2.80176,2.00293,3.86463,3.86463,0,0,0-.09082,3.21191,4.53779,4.53779,0,0,0,2.44727,2.76172,4.929,4.929,0,0,0,3.81054.18262q4.20556-1.41651,6.09375-6.73145a15.94707,15.94707,0,0,0,.0752-10.70508,14.14891,14.14891,0,0,0-6.94531-8.30859,12.5802,12.5802,0,0,0-10.3125-.9209,12.8931,12.8931,0,0,0-7.626,6.03809,12.72982,12.72982,0,0,0-.84082,9.68359l-3.252,1.09375-.35352-1.05078q-3.01758-8.97071-.35547-16.01172a15.44093,15.44093,0,0,1,10.05567-9.52539,17.2325,17.2325,0,0,1,14.11816,1.19824,19.218,19.218,0,0,1,9.43359,11.30274q2.99708,8.91064-1.4082,21.26171l-.91406,2.50293q-2.71875,7.57618-1.60156,10.89649a4.85256,4.85256,0,0,0,6.10449,3.03418,5.194,5.194,0,0,0,3.1914-3.01465,6.34711,6.34711,0,0,0,.17285-4.709q-.98583-2.92822-4.89453-4.76368l1.29493-3.21875a14.36773,14.36773,0,0,1,10.87207,9.92383,13.32029,13.32029,0,0,1-.05371,9.57227,9.95333,9.95333,0,0,1-6.30372,5.89062,8.28543,8.28543,0,0,1-6.35449-.35058,11.20721,11.20721,0,0,1-5.03906-4.92579q-.36182,4.5835-5.207,8.22559l-1.4668,1.07813a10.00962,10.00962,0,0,0-3.02344,3.083,4.05763,4.05763,0,0,0-.00781,3.12989l-3.25293,1.09375Zm1.90918-4.22168a8.8209,8.8209,0,0,1,2.625-5.56934l.76562-.87988q5.74806-6.3999,5.05274-11.51172Q7446.28419,7127.92529,7450.5,7140.45752Z" transform="translate(-6634.43651 -6637.03127)"/><path d="M7483.38867,7210.73047a22.56832,22.56832,0,0,1-3.10937-.39453,22.99281,22.99281,0,0,0-3.82422-.39258q-3.85254.0205-7.94727.3457-4.09571.32228-4.31543.32617a18.81,18.81,0,0,1-6.52441-1.28711,33.19049,33.19049,0,0,1-6.86621-3.48242q-1.87647-1.30956-3.75391-2.61914-1.21288-.60058-2.48144-1.19726a2.80052,2.80052,0,0,1-1.22364-2.46826,2.42266,2.42266,0,0,1,.76075-1.76368,86.30233,86.30233,0,0,1,8.32031-7.415,24.03293,24.03293,0,0,1,5.95215-2.97461,30.08668,30.08668,0,0,1,7.44238-1.71777q4.94824-.46583,19.13867-.542,1.20851-.00732,1.21485.92871.00878,1.70361-2.67969,2.92969a18.6733,18.6733,0,0,0-1.91992.94433,1.46308,1.46308,0,0,0-.76368,1.26953q.00879,1.48536,2.10547,2.82129a12.81427,12.81427,0,0,0,5.56446,1.70215q2.52978.15089,5.06152.30371,1.59522.15528,1.60156,1.20118a1.61019,1.61019,0,0,1-.76074,1.5996,49.67884,49.67884,0,0,0-6.48438,1.29883,15.70831,15.70831,0,0,0-5.04492,2.6128q-1.80908,1.43847-1.80371,2.209.00439.82324,2.458,1.9668,2.45361,1.14258,2.459,2.13281Q7485.97363,7210.71778,7483.38867,7210.73047Zm-38.582-15.19287q-.87891.00585-.89258-2.30469-.02051-4.0708,3.35938-9.36816a49.4249,49.4249,0,0,1,10.44531-11.33106q5.80224-4.76367,15.68848-7.72949a41.60577,41.60577,0,0,1,10.54882-2.09082q3.24464-.01758,3.25293,1.35742.00439.9331-3.39453,3.15234a28.605,28.605,0,0,0-6.67871,5.75586l-.04687,1.375a16.74916,16.74916,0,0,0,4.793,1.46094q2.313.48193,2.31738,1.47168.00879,1.65089-1.4209,1.65723a9.28473,9.28473,0,0,1-.96289-.07617,9.224,9.224,0,0,0-1.01855-.07715q-20.40528.10839-29.27637,7.19629a20.32056,20.32056,0,0,0-5.83789,8.7207C7445.46484,7195.25928,7445.17383,7195.53662,7444.80664,7195.5376Zm39.5332,38.83935a29.50793,29.50793,0,0,1-3.79882-.69531,72.01176,72.01176,0,0,1-8.42774-2.375,46.03738,46.03738,0,0,1-14.89648-8.77539,60.57327,60.57327,0,0,1-9.73633-10.61719q-3.271-4.49413-3.27442-5.26367-.00439-.87891.93067-.88281a8.7057,8.7057,0,0,1,2.4834,1.74609,50.21482,50.21482,0,0,0,6.07422,4.3125q9.71045,5.833,18.95019,5.78321a36.82809,36.82809,0,0,0,4.50879-.32618q2.41845-.31639,2.80371-.31836a.87311.87311,0,0,1,.99414.98438q.00439.60351-2.08105,1.49609-1.37256.55665-2.74317,1.11524-.87889.38964-.876.88476.0044.87891,4.86621,4.75977,5.63379,4.53222,5.64843,7.2832Q7485.77,7234.36719,7484.33984,7234.377Zm-27.40918-34.394a132.74415,132.74415,0,0,0,17.86622-1.63477q1.043-.11718,2.08886-.23242.76905-.11425.76758-.44336-.00293-.55077-3.58008-1.02539a76.4737,76.4737,0,0,0-10.56347-.54883,57.64684,57.64684,0,0,0-11.49024.9961q-3.51415.73389-3.51172,1.5039Q7448.51515,7200.02784,7456.93066,7199.98291Z" transform="translate(-6634.43651 -6637.03127)"/><path d="M7459.05469,7255.49805a8.9107,8.9107,0,0,1,3.51172-4.94336,5.71079,5.71079,0,0,1,5.10839-.80078,5.85192,5.85192,0,0,1,3.78418,3.72461,9.28146,9.28146,0,0,1,.02832,6.2832q-1.80028,5.68359-9.33007,9.48242a45.65926,45.65926,0,0,0,2.87011,7.01758l1.54688,3.03516q8.09179,16.0166,6.09277,22.33007a8.328,8.328,0,0,1-2.791,4.22461,4.02811,4.02811,0,0,1-3.8086.88477q-2.71142-.8584-2.98437-5.96289a7.203,7.203,0,0,0,.96.41406,3.48458,3.48458,0,0,0,3.03027-.44141,4.90911,4.90911,0,0,0,2.06348-2.7832q.72216-2.27929-.40137-7a43.778,43.778,0,0,0-3.50879-9.47461l-1.56054-3.11328q.66065,9.62988-.90918,14.58594a26.96555,26.96555,0,0,1-9.40821,13.80468q-6.62256,5.00978-12.86914,3.03321-4.89111-1.54981-3.92871-8.95313a11.10587,11.10587,0,0,0,2.69336,1.25391,14.79159,14.79159,0,0,0,12.3916-1.35156,17.88953,17.88953,0,0,0,8.1416-10.54883,36.482,36.482,0,0,0,1.44239-10.07031,32.03115,32.03115,0,0,0-.99707-9.71485l-3.58985,1.8086q-12.30762,6.13768-13.50195,9.90625a3.59031,3.59031,0,0,0,.25684,2.80859,3.5434,3.5434,0,0,0,2.16015,1.84766,5.29518,5.29518,0,0,0,4.61035-.72266,7.40485,7.40485,0,0,0,3.15625-4.16406,7.88643,7.88643,0,0,0,.24414-1.23242q2.23682,3.61815,1.32618,6.49414a5.10413,5.10413,0,0,1-3.02735,3.24023,6.91219,6.91219,0,0,1-4.959.1582,8.83089,8.83089,0,0,1-5.44043-5.26757,11.46129,11.46129,0,0,1-.47656-8.31641,11.23623,11.23623,0,0,1,3.65429-5.22461,67.72167,67.72167,0,0,1,10.09668-6.27539l4.06641-2.27539A15.8791,15.8791,0,0,1,7459.05469,7255.49805Zm7.70019.94726a3.83734,3.83734,0,0,0,.17481-2.27148,1.79278,1.79278,0,0,0-1.26758-1.166,2.4477,2.4477,0,0,0-2.50391.49805,7.26122,7.26122,0,0,0-1.82519,3.29492,15.37787,15.37787,0,0,0-.44824,5.20313Q7465.792,7259.48438,7466.75488,7256.44531Z" transform="translate(-6634.43651 -6637.03127)"/><path d="M7407.002,7367.54492l-.64453-4.61523a67.69637,67.69637,0,0,1-1.10449-11.83789,11.2283,11.2283,0,0,1,1.9541-6.06836,11.46355,11.46355,0,0,1,6.91016-4.64649,8.83713,8.83713,0,0,1,7.48633,1.15039,6.91528,6.91528,0,0,1,2.873,4.04493,5.104,5.104,0,0,1-.75293,4.36914q-1.74023,2.46679-5.97363,2.86914a7.86073,7.86073,0,0,0,.833-.9375,7.41715,7.41715,0,0,0,1.41113-5.03321,5.30177,5.30177,0,0,0-2.21289-4.10742,3.53874,3.53874,0,0,0-2.77734-.60547,3.58753,3.58753,0,0,0-2.39161,1.49414q-2.28222,3.22853.26856,16.74414l.72949,3.95313a31.96418,31.96418,0,0,0,8.3418-5.08008,36.42877,36.42877,0,0,0,7.15039-7.23633,17.89861,17.89861,0,0,0,3.4834-12.86328,14.79537,14.79537,0,0,0-6.416-10.68555,11.04159,11.04159,0,0,0-2.62695-1.38867q5.31591-5.24413,9.50683-2.28125,5.35254,3.7793,5.36329,12.08594a26.95653,26.95653,0,0,1-5.30957,15.83789q-3,4.24512-11.06836,9.53906l3.42187-.63671a43.677,43.677,0,0,0,9.669-2.9336q4.43847-1.957,5.81933-3.91211a4.89979,4.89979,0,0,0,.96973-3.32422,3.47685,3.47685,0,0,0-1.48145-2.67968,6.67161,6.67161,0,0,0-.90918-.51563q4.23193-2.86817,6.55567-1.22852a4.03214,4.03214,0,0,1,1.5957,3.56836,8.30962,8.30962,0,0,1-1.67871,4.7793q-3.81738,5.40821-21.4707,8.64453l-3.35352.60157a45.51891,45.51891,0,0,0-7.32519,1.957q1.52635,8.29393-1.91309,13.16406a9.28828,9.28828,0,0,1-5.02246,3.77539,5.85483,5.85483,0,0,1-5.25586-.76367,5.70708,5.70708,0,0,1-2.44824-4.55274,8.91012,8.91012,0,0,1,1.81445-5.78515A15.87734,15.87734,0,0,1,7407.002,7367.54492Zm.31153,2.38477a15.37871,15.37871,0,0,0-3.876,3.50195,7.2744,7.2744,0,0,0-1.52148,3.44531,2.44968,2.44968,0,0,0,1.11718,2.29688,1.79152,1.79152,0,0,0,1.69336.30469,3.84933,3.84933,0,0,0,1.70606-1.51172Q7408.27246,7375.36231,7407.31348,7369.92969Z" transform="translate(-6634.43651 -6637.03127)"/><path d="M7380.40234,7411.84766l-.75781,4.5957a67.73307,67.73307,0,0,1-2.5918,11.60352,11.22446,11.22446,0,0,1-3.72656,5.17187,11.44565,11.44565,0,0,1-8.00586,2.29492,8.86,8.86,0,0,1-6.78906-3.42383,6.86652,6.86652,0,0,1-1.46875-4.70507,5.11165,5.11165,0,0,1,2.06152-3.92774q2.41407-1.80762,6.5459-.918a8.27624,8.27624,0,0,0-1.08105.63672,7.36039,7.36039,0,0,0-2.87989,4.36719,5.31486,5.31486,0,0,0,.83008,4.57617,3.61806,3.61806,0,0,0,2.4541,1.45313,3.54181,3.54181,0,0,0,2.75977-.68165q3.1626-2.3701,4.89551-16.01367l.49414-3.96679a31.44187,31.44187,0,0,0-9.48633,2.25781,36.42723,36.42723,0,0,0-9.01563,4.67578,17.987,17.987,0,0,0-7.29589,11.16211,14.70733,14.70733,0,0,0,2.792,12.13867,11.10707,11.10707,0,0,0,2.07129,2.13086q-6.62256,3.35742-9.71973-.77539-3.90966-5.21778-1.36328-13.12305a26.96451,26.96451,0,0,1,9.9248-13.43554q4.13379-3.09669,13.4668-5.67188l-3.501-.45312a43.24838,43.24838,0,0,0-10.07812-.17969q-4.80176.498-6.71582,1.93359a4.97482,4.97482,0,0,0-1.96,2.877,3.4582,3.4582,0,0,0,.57129,3.01562,6.24636,6.24636,0,0,0,.68554.74219q-4.90869,1.42676-6.61425-.84961a3.98343,3.98343,0,0,1-.39746-3.88281,8.42,8.42,0,0,1,3.06347-4.00586q5.32617-3.99024,23.11719-1.63868l3.37695.459a49.30861,49.30861,0,0,0,7.57129.39258q1.1001-8.36426,5.8711-11.9375a9.2765,9.2765,0,0,1,5.90234-2.03907,5.82942,5.82942,0,0,1,4.77539,2.35547,5.68407,5.68407,0,0,1,.93457,5.0625,8.91467,8.91467,0,0,1-3.50391,4.92188A16.10075,16.10075,0,0,1,7380.40234,7411.84766Zm.48633-2.35743a15.47366,15.47366,0,0,0,4.71582-2.14843,7.4062,7.4062,0,0,0,2.51856-2.79688,2.40384,2.40384,0,0,0-.34571-2.51172,1.77647,1.77647,0,0,0-1.53222-.80273,3.84122,3.84122,0,0,0-2.07324.9043Q7381.61866,7404.04786,7380.88867,7409.49023Z" transform="translate(-6634.43651 -6637.03127)"/><path d="M7267.89062,7472.58789a8.90306,8.90306,0,0,1-6.04.14453,5.67357,5.67357,0,0,1-3.669-3.60937,5.83228,5.83228,0,0,1,.72363-5.27735,9.28029,9.28029,0,0,1,4.99512-3.74414q5.63526-1.95117,13.17773,1.82422a49.01715,49.01715,0,0,0,3.916-6.49219l1.51172-3.05273q8.01855-16.05469,14.30957-18.23047a8.39348,8.39348,0,0,1,5.03418-.293,3.98006,3.98006,0,0,1,2.99414,2.50391q.93018,2.68651-3.00195,5.95312a6.55042,6.55042,0,0,0-.23047-.98242,3.45814,3.45814,0,0,0-2.17871-2.16211,4.9671,4.9671,0,0,0-3.48145.01172q-2.25879.78222-5.36523,4.47852a43.46543,43.46543,0,0,0-5.49512,8.44922l-1.58691,3.15429q7.3623-6.29,12.24414-7.97851a26.9659,26.9659,0,0,1,16.68945-.69336q7.97462,2.32031,10.10547,8.48047,1.689,4.88378-4.80469,8.48632a11.03486,11.03486,0,0,0-.60351-2.91015,14.71452,14.71452,0,0,0-8.49024-9.11328,17.98941,17.98941,0,0,0-13.334-.209,36.5204,36.5204,0,0,0-8.92383,4.84766,31.42725,31.42725,0,0,0-7.1836,6.59375l3.56153,1.8125q12.27393,6.208,16.00781,4.916a3.54143,3.54143,0,0,0,2.11133-1.90234,3.63171,3.63171,0,0,0,.1709-2.84766,5.31593,5.31593,0,0,0-3.32617-3.25195,7.35229,7.35229,0,0,0-5.23047-.06055,8.0681,8.0681,0,0,0-1.13379.53907q1.57764-3.92286,4.42871-4.90821a5.09891,5.09891,0,0,1,4.40723.49414,6.86321,6.86321,0,0,1,3.07519,3.85157,8.86824,8.86824,0,0,1-.96777,7.543,11.46517,11.46517,0,0,1-6.38574,5.34571,11.24184,11.24184,0,0,1-6.37305.1875,67.83636,67.83636,0,0,1-11.0625-4.35352l-4.23145-1.94726A16.09347,16.09347,0,0,1,7267.89062,7472.58789Zm-3.793-6.72266a3.8627,3.8627,0,0,0-1.91016,1.21094,1.77535,1.77535,0,0,0-.19434,1.71875,2.40969,2.40969,0,0,0,1.8877,1.69531,7.4408,7.4408,0,0,0,3.72852-.51953,15.477,15.477,0,0,0,4.41992-2.70312Q7267.11035,7464.82129,7264.09766,7465.86523Z" transform="translate(-6634.43651 -6637.03127)"/><path d="M7167.08154,7484.62891a29.64443,29.64443,0,0,1,.66114-3.80469,72.50429,72.50429,0,0,1,2.30175-8.44727,46.07993,46.07993,0,0,1,8.646-14.97265,60.60981,60.60981,0,0,1,10.53418-9.82813q4.46484-3.30762,5.23291-3.31836c.58691-.00976.88428.29883.89307.92188a8.70735,8.70735,0,0,1-1.72461,2.498,50.09584,50.09584,0,0,0-4.25977,6.11133q-5.748,9.76173-5.61914,19a36.70936,36.70936,0,0,0,.36475,4.50586c.22509,1.60938.33935,2.54492.34277,2.80078a.87558.87558,0,0,1-.97607,1.00391q-.60426.00879-1.51465-2.06836-.56689-1.36816-1.1377-2.73437-.397-.876-.89258-.86915-.87889.01173-4.71679,4.90821-4.48536,5.67188-7.23584,5.71094Q7167.10132,7486.0586,7167.08154,7484.62891Zm23.63623-1.15625a22.57186,22.57186,0,0,1,.36817-3.11328,22.8562,22.8562,0,0,0,.35937-3.82813q-.0542-3.84667-.41455-7.94141-.35815-4.09277-.3623-4.3125a18.833,18.833,0,0,1,1.228-6.53515,33.217,33.217,0,0,1,3.42481-6.89649q1.29273-1.88964,2.58642-3.77734.5896-1.21583,1.1753-2.49219a2.80031,2.80031,0,0,1,2.458-1.24414,2.42586,2.42586,0,0,1,1.76953.74609,85.942,85.942,0,0,1,7.48633,8.25586,23.974,23.974,0,0,1,3.02734,5.92579,30.00889,30.00889,0,0,1,1.78125,7.42773q.50976,4.94238.708,19.13281c.01172.80469-.294,1.21485-.918,1.22266q-1.70361.02343-2.95215-2.6543a19.0738,19.0738,0,0,0-.96191-1.91211,1.46532,1.46532,0,0,0-1.27637-.75195q-1.48389.0205-2.80176,2.13086a12.80353,12.80353,0,0,0-1.65527,5.57812q-.12891,2.53125-.25879,5.06446c-.09473,1.0625-.49024,1.60156-1.1875,1.61133a1.60979,1.60979,0,0,1-1.60547-.74805,50.019,50.019,0,0,0-1.35645-6.47266,15.6729,15.6729,0,0,0-2.65527-5.02148q-1.45386-1.7959-2.22559-1.78516-.8247.01172-1.94433,2.47656-1.12061,2.46095-2.11133,2.47657Q7190.75391,7486.05859,7190.71777,7483.47266Zm10.51856-26.55078a132.48151,132.48151,0,0,0,1.791,17.85351l.249,2.08594c.08105.51172.23047.76758.44922.76367q.55224-.00587.99609-3.58984a76.50686,76.50686,0,0,0,.457-10.56641,57.59824,57.59824,0,0,0-1.09668-11.48047q-.76318-3.50976-1.5332-3.5Q7201.11768,7448.50879,7201.23633,7456.92188Zm4.33984-12.16016q-.01172-.87891,2.29688-.91406,4.07079-.05567,9.39746,3.27929a49.44509,49.44509,0,0,1,11.4209,10.34571q4.812,5.76268,7.86523,15.623a41.62158,41.62158,0,0,1,2.18262,10.5293q.04393,3.24316-1.3291,3.26367-.93458.01465-3.18262-3.36523a28.51512,28.51512,0,0,0-5.81348-6.62891l-1.376-.03515a16.78811,16.78811,0,0,0-1.417,4.80468q-.46435,2.31738-1.45312,2.33008-1.65089.02344-1.66992-1.40625c-.002-.18359.0205-.50586.06836-.96289a9.54237,9.54237,0,0,0,.06933-1.01953q-.28564-20.40528-7.45117-29.21289a20.3056,20.3056,0,0,0-8.77051-5.76367C7205.86035,7445.418,7205.582,7445.127,7205.57617,7444.76172Z" transform="translate(-6634.43651 -6637.03127)"/><path d="M7099.1543,7433.97852q8.45653,2.59863,12.01172,5.793a12.445,12.445,0,0,1,4.01367,8.55664,11.46145,11.46145,0,0,1,4.4707-2.32617,8.54823,8.54823,0,0,1,9.77441,4.81446,10.02952,10.02952,0,0,1,.48243,7.47461,21.87073,21.87073,0,0,1-4.45313,7.29882l-2.55664-2.30664a8.29888,8.29888,0,0,0,1.65674-2.791,4.763,4.763,0,0,0,.00488-3.44531,3.86932,3.86932,0,0,0-2.55713-1.94532,4.53581,4.53581,0,0,0-3.66992.37891,4.91508,4.91508,0,0,0-2.36865,2.99023q-1.30225,4.23927,1.917,8.875a15.94815,15.94815,0,0,0,8.6543,6.30078,14.14587,14.14587,0,0,0,10.79883-.80078,12.5831,12.5831,0,0,0,6.76025-7.84179,12.887,12.887,0,0,0-.46191-9.71485,12.71663,12.71663,0,0,0-7.37793-6.32812l1.00781-3.28125,1.06006.32617q9.04761,2.77734,13.21631,9.04492a15.43935,15.43935,0,0,1,1.8789,13.72266,17.23827,17.23827,0,0,1-9.20508,10.77344,19.21629,19.21629,0,0,1-14.68261,1.07617q-8.98682-2.75978-16.4541-13.53907l-1.50147-2.20117q-4.57031-6.624-7.91846-7.65429a4.85736,4.85736,0,0,0-6.0249,3.1914,5.1951,5.1951,0,0,0,.58936,4.35156,6.34444,6.34444,0,0,0,3.72607,2.88477q2.95239.90821,6.72266-1.19922l1.86084,2.92969a14.36793,14.36793,0,0,1-14.40137,3.04687,13.31613,13.31613,0,0,1-7.74609-5.623,9.95647,9.95647,0,0,1-1.11133-8.55664,8.29177,8.29177,0,0,1,3.98877-4.959,11.21737,11.21737,0,0,1,6.93994-1.22265q-3.5127-2.96485-3.64844-9.02539l-.02051-1.82032a9.99675,9.99675,0,0,0-.74267-4.25195,4.05007,4.05007,0,0,0-2.53858-1.832l1.00684-3.28125Zm2.31738,4.01171a8.8182,8.8182,0,0,1,2.99414,5.38086l.269,1.13477q1.84937,8.39942,6.40869,10.81641Q7114.11133,7441.87207,7101.47168,7437.99023Z" transform="translate(-6634.43651 -6637.03127)"/><path d="M7083.17725,7427.457l-1.95557,2.82031a4.0445,4.0445,0,0,0-3.00879-.86328,10.0108,10.0108,0,0,0-3.80273,2.04492l-1.44336,1.10938q-4.84571,3.64159-9.34912,2.71289a11.20074,11.20074,0,0,1,3.32861,6.21094,8.27925,8.27925,0,0,1-1.43115,6.20117,9.94954,9.94954,0,0,1-7.41065,4.416,13.31121,13.31121,0,0,1-9.21-2.61133,14.36479,14.36479,0,0,1-6.50683-13.20313l3.45117-.34765q.67529,4.26269,3.21386,6.02343a6.33588,6.33588,0,0,0,4.57227,1.14649,5.192,5.192,0,0,0,3.7832-2.22852,4.85368,4.85368,0,0,0-1.21631-6.707q-2.87914-1.99512-10.91162-1.49219l-2.65869.18164q-13.08984.794-20.814-4.5625a19.21991,19.21991,0,0,1-8.23145-12.20507,17.22945,17.22945,0,0,1,2.77637-13.89649,15.44158,15.44158,0,0,1,11.94726-7.00781q7.50294-.59766,15.2793,4.79687l.91211.63086-1.956,2.82032a12.72431,12.72431,0,0,0-9.53418-1.88672,12.888,12.888,0,0,0-7.92188,5.64453,12.58211,12.58211,0,0,0-1.98437,10.16211,14.14551,14.14551,0,0,0,6.04736,8.98242,15.94872,15.94872,0,0,0,10.30371,2.90625q5.63305-.334,8.16065-3.98242a4.91329,4.91329,0,0,0,.88574-3.709,4.53746,4.53746,0,0,0-1.97168-3.11914,3.8723,3.8723,0,0,0-3.11084-.80664,4.75515,4.75515,0,0,0-2.70264,2.13281,8.28752,8.28752,0,0,0-1.1709,3.0293l-3.39453-.584a21.93113,21.93113,0,0,1,2.98389-8.01368,10.0325,10.0325,0,0,1,6.17236-4.24023,8.5492,8.5492,0,0,1,9.82813,4.70508,11.4301,11.4301,0,0,1,.93554,4.95312,12.44369,12.44369,0,0,1,9.208-2.13671q4.70947.81738,11.97852,5.85937Zm-30.1167-.33984q4.71825,2.08887,12.46338-1.65039l1.0581-.49024a8.80631,8.80631,0,0,1,6.08057-.97265Q7061.79713,7416.46875,7053.06055,7427.11719Z" transform="translate(-6634.43651 -6637.03127)"/><path d="M6981.34473,7331.69141q5.36573,7.03417,6.397,11.70117a12.44649,12.44649,0,0,1-1.71729,9.29492,11.45987,11.45987,0,0,1,4.99024.71094,8.5497,8.5497,0,0,1,5.146,9.60547,10.02759,10.02759,0,0,1-3.95752,6.35742,21.87493,21.87493,0,0,1-7.87109,3.34375l-.73486-3.36328a8.32527,8.32527,0,0,0,2.97217-1.30664,4.766,4.766,0,0,0,2.0083-2.79688,3.86786,3.86786,0,0,0-.94727-3.07226,4.54209,4.54209,0,0,0-3.2041-1.82813,4.93455,4.93455,0,0,0-3.6665,1.05273q-3.52809,2.6924-3.60743,8.334a15.94777,15.94777,0,0,0,3.37012,10.16016,14.14514,14.14514,0,0,0,9.24707,5.63476,12.58219,12.58219,0,0,0,10.0625-2.44336,12.88607,12.88607,0,0,0,5.27832-8.16992,12.717,12.717,0,0,0-2.3164-9.4375l2.729-2.082.67236.88281q5.74073,7.52345,5.48291,15.04492a15.4414,15.4414,0,0,1-6.45947,12.25391,17.2261,17.2261,0,0,1-13.75439,3.40234,19.208,19.208,0,0,1-12.56592-7.66992q-5.7019-7.47363-5.50147-20.58594l.061-2.66406q.13915-8.04492-1.98535-10.832a4.85393,4.85393,0,0,0-6.75586-.91211,5.19883,5.19883,0,0,0-2.0542,3.88281,6.34631,6.34631,0,0,0,1.35156,4.51367q1.87281,2.45508,6.165,2.9375l-.1919,3.46485a14.368,14.368,0,0,1-13.48486-5.9043,13.30746,13.30746,0,0,1-3.0249-9.08008,9.94659,9.94659,0,0,1,4.07519-7.60351,8.27293,8.27293,0,0,1,6.12891-1.71094,11.19959,11.19959,0,0,1,6.35547,3.043q-1.13087-4.456,2.28711-9.46289l1.042-1.49219a9.99832,9.99832,0,0,0,1.87207-3.89062,4.05287,4.05287,0,0,0-.999-2.9668l2.72851-2.082Zm-.4502,4.61132a8.81585,8.81585,0,0,1-.69629,6.11915l-.4414,1.07812q-3.38526,7.91016-1.084,12.52539Q6988.91358,7346.81739,6980.89453,7336.30273Z" transform="translate(-6634.43651 -6637.03127)"/><path d="M6972.18945,7317.09375l-3.2334,1.15039a4.04119,4.04119,0,0,0-1.93994-2.45508,10.00371,10.00371,0,0,0-4.28271-.55859l-1.81885.05859q-6.0608.13183-9.17627-3.248a11.21129,11.21129,0,0,1-.91894,6.98632,8.27513,8.27513,0,0,1-4.7793,4.20118,9.947,9.947,0,0,1-8.5957-.73633,13.31767,13.31767,0,0,1-5.958-7.49219,14.372,14.372,0,0,1,2.416-14.52148l3.00782,1.73046q-1.94092,3.8584-.90528,6.76954a6.35069,6.35069,0,0,0,3.0459,3.59765,5.19216,5.19216,0,0,0,4.37207.39649,4.85208,4.85208,0,0,0,2.92481-6.15821q-1.17335-3.29883-7.99317-7.57617l-2.26416-1.4043q-11.09545-6.9873-14.2456-15.8457a19.218,19.218,0,0,1,.43359-14.71484,17.23456,17.23456,0,0,1,10.36035-9.668,15.44129,15.44129,0,0,1,13.792,1.27734q6.44385,3.89063,9.61426,12.8086l.37158,1.04492-3.23388,1.14844a12.72322,12.72322,0,0,0-6.64356-7.09375,12.90186,12.90186,0,0,0-9.72656-.03516,12.5828,12.5828,0,0,0-7.54,7.0957,14.15062,14.15062,0,0,0-.32764,10.82422,15.93824,15.93824,0,0,0,6.6753,8.36914q4.76952,3.01758,8.95019,1.52735a4.922,4.922,0,0,0,2.8833-2.4961,4.536,4.536,0,0,0,.21729-3.68359,3.86846,3.86846,0,0,0-2.05567-2.4707,4.76266,4.76266,0,0,0-3.44043.15624,8.29552,8.29552,0,0,0-2.71582,1.77735l-2.418-2.45313a21.91428,21.91428,0,0,1,7.09814-4.76953,10.03709,10.03709,0,0,1,7.48779.15625,8.5481,8.5481,0,0,1,5.2378,9.55469,11.43683,11.43683,0,0,1-2.12891,4.56836,12.44924,12.44924,0,0,1,8.7251,3.63477q3.34863,3.41309,6.31152,11.748ZM6947.92578,7299.25q2.61255,4.4502,11.08643,5.92969l1.14453.21875a8.81665,8.81665,0,0,1,5.50635,2.75781Q6961.2334,7295.69629,6947.92578,7299.25Z" transform="translate(-6634.43651 -6637.03127)"/><path d="M6915.46191,7193.18994a22.52789,22.52789,0,0,1,3.11621.3418,22.9525,22.9525,0,0,0,3.83106.32519q3.84962-.08788,7.938-.48339,4.09058-.39552,4.30957-.4004a18.84942,18.84942,0,0,1,6.54638,1.1709,33.28191,33.28191,0,0,1,6.92579,3.36328q1.89843,1.27736,3.79882,2.55469,1.22242.57861,2.502,1.15283a2.7964,2.7964,0,0,1,1.26562,2.44727,2.41918,2.41918,0,0,1-.72949,1.77734,86.32,86.32,0,0,1-8.18945,7.55664,24.02128,24.02128,0,0,1-5.89942,3.07813,29.94594,29.94594,0,0,1-7.41211,1.84766q-4.93944.55371-19.12548.875c-.80518.01757-1.21631-.28321-1.23145-.90626q-.03808-1.70507,2.62842-2.97656a18.75681,18.75681,0,0,0,1.90332-.97851,1.46339,1.46339,0,0,0,.74072-1.28125q-.033-1.48536-2.15381-2.78516a12.81383,12.81383,0,0,0-5.59277-1.60547q-2.532-.10839-5.06592-.21484-1.59814-.12891-1.62256-1.17383a1.606,1.606,0,0,1,.7334-1.61133,49.85375,49.85375,0,0,0,6.46-1.41406,15.66346,15.66346,0,0,0,5-2.69922q1.78125-1.4685,1.76416-2.23975-.01832-.82323-2.49219-1.92382-2.47191-1.09865-2.4956-2.08789Q6912.87769,7193.24952,6915.46191,7193.18994Zm38.84034,14.519q.87963-.02051.9331,2.28907.09229,4.07226-3.19726,9.42578a49.43178,49.43178,0,0,1-10.24561,11.51172q-5.71949,4.86327-15.55127,8.00195a41.68771,41.68771,0,0,1-10.51172,2.27344q-3.24316.07324-3.27539-1.30078-.02051-.93458,3.33838-3.21289a28.58928,28.58928,0,0,0,6.57764-5.86915l.02441-1.37695a16.80371,16.80371,0,0,0-4.81836-1.375q-2.32031-.44238-2.34277-1.43359-.03735-1.64941,1.3916-1.68164c.18408-.00391.50488.01758.96484.06054a9.74649,9.74649,0,0,0,1.01856.06055q20.40087-.46582,29.14746-7.707a20.30393,20.30393,0,0,0,5.68555-8.82031Q6953.75269,7207.72266,6954.30225,7207.709Zm-40.20313-38.144a29.30557,29.30557,0,0,1,3.81006.62891,72.45954,72.45954,0,0,1,8.46826,2.22754,46.05261,46.05261,0,0,1,15.04785,8.51465,60.626,60.626,0,0,1,9.91944,10.44726q3.34643,4.43554,3.36523,5.20508.01905.87891-.915.90039a8.74386,8.74386,0,0,1-2.51465-1.70313,49.92121,49.92121,0,0,0-6.14746-4.206q-9.81078-5.66309-19.04883-5.4541a36.84139,36.84139,0,0,0-4.502.40625q-2.41187.35742-2.79687.36621a.87576.87576,0,0,1-1.01319-.9668q-.0139-.605,2.05615-1.5332,1.36231-.58008,2.72364-1.16211c.582-.26953.86767-.57031.86035-.89941q-.01977-.87891-4.94727-4.67383-5.71288-4.43554-5.77539-7.18555Q6912.66968,7169.59814,6914.09912,7169.56494Zm28.00342,33.91162a132.95433,132.95433,0,0,0-17.835,1.94532q-1.04077.13476-2.085.26757-.76611.12891-.75977.459.01318.55077,3.59863.96289a76.61716,76.61716,0,0,0,10.57129.36328,57.581,57.581,0,0,0,11.47022-1.19531q3.50244-.794,3.48584-1.56446Q6950.51514,7203.28516,6942.10254,7203.47656Z" transform="translate(-6634.43651 -6637.03127)"/><path d="M6939.00684,7148.01807a8.91234,8.91234,0,0,1-3.42383,5.00293,5.7111,5.7111,0,0,1-5.09375.89062,5.8522,5.8522,0,0,1-3.84864-3.65918,9.283,9.283,0,0,1-.13867-6.28125q1.70142-5.71436,9.16407-9.64355a45.65346,45.65346,0,0,0-2.99122-6.96582l-1.60009-3.00977q-8.36939-15.87158-6.481-22.21973a8.31642,8.31642,0,0,1,2.71875-4.27246,4.02878,4.02878,0,0,1,3.791-.95215q2.72607.81153,3.08837,5.91114a7.048,7.048,0,0,0-.96728-.39649,3.4783,3.4783,0,0,0-3.02246.49317,4.91105,4.91105,0,0,0-2.01416,2.81836q-.68188,2.29248.52392,6.99218a43.74154,43.74154,0,0,0,3.67286,9.41309l1.61377,3.084q-.82764-9.61377.65527-14.59863a26.97056,26.97056,0,0,1,9.16553-13.96582q6.53613-5.12549,12.81543-3.25683,4.91748,1.46337,4.084,8.88378a11.06415,11.06415,0,0,0-2.71533-1.207,14.79433,14.79433,0,0,0-12.36621,1.56543,17.89379,17.89379,0,0,0-7.95508,10.69043,36.43956,36.43956,0,0,0-1.26807,10.09375,32.08681,32.08681,0,0,0,1.165,9.69727l3.55957-1.8711q12.19776-6.353,13.32617-10.14062a3.58966,3.58966,0,0,0-.30517-2.80371,3.543,3.543,0,0,0-2.19238-1.80957,5.29736,5.29736,0,0,0-4.59717.80176,7.40212,7.40212,0,0,0-3.082,4.21972,7.76921,7.76921,0,0,0-.22315,1.23438q-2.29907-3.57715-1.439-6.46778a5.10223,5.10223,0,0,1,2.96972-3.29394,6.906,6.906,0,0,1,4.95508-.24317,8.8287,8.8287,0,0,1,5.53223,5.17286,11.45856,11.45856,0,0,1,.62109,8.30468,11.22305,11.22305,0,0,1-3.56348,5.28711,67.5028,67.5028,0,0,1-9.98535,6.45118l-4.02588,2.34667A15.88405,15.88405,0,0,1,6939.00684,7148.01807Zm-7.71534-.8125a3.82266,3.82266,0,0,0-.13427,2.27343,1.792,1.792,0,0,0,1.28711,1.14454,2.44619,2.44619,0,0,0,2.49414-.543,7.24765,7.24765,0,0,0,1.76757-3.32618,15.31674,15.31674,0,0,0,.35645-5.21093Q6932.20069,7144.148,6931.2915,7147.20557Z" transform="translate(-6634.43651 -6637.03127)"/><path d="M6989.13184,7035.06006l.72509,4.60449A67.60484,67.60484,0,0,1,6991.165,7051.48a11.23437,11.23437,0,0,1-1.84766,6.10254,11.45882,11.45882,0,0,1-6.83008,4.76562,8.83239,8.83239,0,0,1-7.50488-1.0205,6.9145,6.9145,0,0,1-2.94238-3.99512,5.1055,5.1055,0,0,1,.67773-4.38281q1.69776-2.49317,5.92285-2.97071a7.85815,7.85815,0,0,0-.81689.95313,7.40241,7.40241,0,0,0-1.32324,5.05469,5.30079,5.30079,0,0,0,2.2832,4.07031,3.53977,3.53977,0,0,0,2.7876.55566,3.58538,3.58538,0,0,0,2.36621-1.53515q2.22363-3.26661-.55859-16.73633l-.79786-3.94043a32.0745,32.0745,0,0,0-8.25293,5.22266,36.444,36.444,0,0,0-7.02392,7.36035,17.88953,17.88953,0,0,0-3.26025,12.9209,14.79006,14.79006,0,0,0,6.5996,10.57421,11.05448,11.05448,0,0,0,2.6504,1.34278q-5.2251,5.335-9.46631,2.44629-5.41626-3.687-5.5708-11.99219a26.96038,26.96038,0,0,1,5.03418-15.92774q2.926-4.29785,10.90234-9.73046l-3.41113.69824a43.71541,43.71541,0,0,0-9.61621,3.09863q-4.40479,2.03467-5.751,4.01172a4.90518,4.90518,0,0,0-.91211,3.3418,3.47577,3.47577,0,0,0,1.52734,2.65429,7.10262,7.10262,0,0,0,.918.5q-4.18212,2.93994-6.53222,1.33985a4.02944,4.02944,0,0,1-1.65821-3.54,8.3262,8.3262,0,0,1,1.59473-4.80762q3.72656-5.47266,21.31836-9.01367l3.34375-.66016a45.42684,45.42684,0,0,0,7.28906-2.083q-1.66845-8.26611,1.68652-13.19531a9.28128,9.28128,0,0,1,4.95508-3.86035,5.85021,5.85021,0,0,1,5.26856.6709,5.7149,5.7149,0,0,1,2.52832,4.51074,8.91389,8.91389,0,0,1-1.71533,5.81445A15.866,15.866,0,0,1,6989.13184,7035.06006Zm-.35157-2.37793a15.34912,15.34912,0,0,0,3.81348-3.56836,7.25981,7.25981,0,0,0,1.46191-3.47168,2.44817,2.44817,0,0,0-1.15576-2.27637,1.79345,1.79345,0,0,0-1.6997-.27539,3.83512,3.83512,0,0,0-1.67774,1.541Q6987.72657,7027.26807,6988.78027,7032.68213Z" transform="translate(-6634.43651 -6637.03127)"/><path d="M7014.9458,6990.31494l.67725-4.60937a67.65337,67.65337,0,0,1,2.39062-11.64551,11.236,11.236,0,0,1,3.63477-5.23828,11.45917,11.45917,0,0,1,7.96533-2.4336,8.865,8.865,0,0,1,6.84814,3.30664,6.86616,6.86616,0,0,1,1.54932,4.67872,5.10227,5.10227,0,0,1-1.99268,3.96191q-2.38183,1.8501-6.52832,1.0332a8.26875,8.26875,0,0,0,1.07032-.65625,7.35673,7.35673,0,0,0,2.80273-4.416,5.31243,5.31243,0,0,0-.90918-4.56153,3.628,3.628,0,0,0-2.47851-1.41113,3.54706,3.54706,0,0,0-2.74805.72949q-3.12086,2.42432-4.61621,16.09766l-.42481,3.97363a31.486,31.486,0,0,0,9.44532-2.4209,36.48538,36.48538,0,0,0,8.93261-4.832,17.99467,17.99467,0,0,0,7.10157-11.28808,14.71634,14.71634,0,0,0-3.00293-12.08789,11.07132,11.07132,0,0,0-2.10889-2.09278q6.56324-3.4746,9.73291.60547,3.99756,5.146,1.59082,13.0957a26.963,26.963,0,0,1-9.68945,13.60743q-4.0796,3.167-13.36719,5.90429l3.50879.3916a43.31522,43.31522,0,0,0,10.0791.00684q4.79223-.583,6.68115-2.05078a4.97966,4.97966,0,0,0,1.91016-2.91016,3.46109,3.46109,0,0,0-.62305-3.00683,6.36818,6.36818,0,0,0-.69873-.7295q4.88379-1.51172,6.62793.7334a3.98383,3.98383,0,0,1,.46436,3.876,8.41667,8.41667,0,0,1-2.99268,4.05859q-5.25659,4.084-23.08545,2.041l-3.38428-.40039a49.30034,49.30034,0,0,0-7.57666-.26074q-.95435,8.38036-5.66259,12.03711a9.284,9.284,0,0,1-5.86524,2.1416,5.83013,5.83013,0,0,1-4.81738-2.27246,5.6819,5.6819,0,0,1-1.02051-5.0459,8.89816,8.89816,0,0,1,3.417-4.98047A16.08924,16.08924,0,0,1,7014.9458,6990.31494Zm-.44531,2.36524a15.4797,15.4797,0,0,0-4.67774,2.22851,7.41208,7.41208,0,0,0-2.46923,2.83985,2.40686,2.40686,0,0,0,.38867,2.50781,1.77751,1.77751,0,0,0,1.5459.77441,3.85208,3.85208,0,0,0,2.05761-.93945Q7013.86523,6998.13428,7014.50049,6992.68018Z" transform="translate(-6634.43651 -6637.03127)"/><path d="M7126.38867,6927.64014a8.895,8.895,0,0,1,6.03613-.249,5.6788,5.6788,0,0,1,3.73145,3.54493,5.83023,5.83023,0,0,1-.63281,5.2871,9.2816,9.2816,0,0,1-4.93018,3.832q-5.60155,2.04637-13.207-1.59571a49.2057,49.2057,0,0,0-3.80469,6.55664l-1.45849,3.08008q-7.741,16.18945-13.99317,18.47363a8.41481,8.41481,0,0,1-5.02832.37989,3.98219,3.98219,0,0,1-3.03662-2.45313q-.97632-2.66894,2.89893-6.00488a6.47726,6.47726,0,0,0,.24707.97949,3.45782,3.45782,0,0,0,2.21679,2.125,4.96944,4.96944,0,0,0,3.4795-.07129q2.24706-.82178,5.28711-4.57129a43.38153,43.38153,0,0,0,5.34961-8.543l1.53173-3.18066q-7.25244,6.416-12.104,8.18848a26.96088,26.96088,0,0,1-16.67529.98047q-8.01491-2.18409-10.251-8.30567-1.77246-4.85155,4.65771-8.56738a11.08629,11.08629,0,0,0,.65333,2.89844,14.71431,14.71431,0,0,0,8.64648,8.96582,17.99054,17.99054,0,0,0,13.33594-.01856,36.52125,36.52125,0,0,0,8.83935-5.00195,31.44752,31.44752,0,0,0,7.06885-6.7168l-3.59277-1.75q-12.37794-5.99706-16.08985-4.64062a3.54283,3.54283,0,0,0-2.07812,1.94043,3.63111,3.63111,0,0,0-.12207,2.84961,5.3184,5.3184,0,0,0,3.38183,3.19336,7.35407,7.35407,0,0,0,5.23047-.02832,8.37459,8.37459,0,0,0,1.125-.5586q-1.51025,3.94776-4.34326,4.98242a5.10374,5.10374,0,0,1-4.41553-.417,6.85641,6.85641,0,0,1-3.14062-3.79785,8.86336,8.86336,0,0,1,.83642-7.55859,11.45483,11.45483,0,0,1,6.29346-5.45508,11.22916,11.22916,0,0,1,6.36914-.29688,67.60049,67.60049,0,0,1,11.13574,4.16211l4.26465,1.874A16.06685,16.06685,0,0,1,7126.38867,6927.64014Zm3.90821,6.65527a3.85337,3.85337,0,0,0,1.88867-1.24414,1.77513,1.77513,0,0,0,.165-1.7207,2.40573,2.40573,0,0,0-1.917-1.66211,7.41239,7.41239,0,0,0-3.71777.584,15.4208,15.4208,0,0,0-4.37305,2.77832Q7127.30128,6935.39062,7130.29688,6934.29541Z" transform="translate(-6634.43651 -6637.03127)"/><text x="-6634.43651" y="-6637.03127"/></svg>