<svg id="svg" xmlns="http://www.w3.org/2000/svg" xmlns:xlink="http://www.w3.org/1999/xlink" width="400" height="400" viewBox="0, 0, 400,400"><g id="svgg"><path id="path0" d="M130.487 65.215 C 131.123 73.133,131.830 75.796,133.628 77.055 C 134.904 77.949,139.357 83.942,143.523 90.374 C 147.690 96.806,151.976 102.797,153.049 103.687 C 154.122 104.578,155.000 106.791,155.000 108.607 C 155.000 110.801,155.922 112.321,157.751 113.141 C 159.265 113.820,161.655 116.427,163.064 118.935 C 166.439 124.944,175.316 138.420,178.970 143.081 C 180.568 145.120,181.896 147.370,181.921 148.081 C 181.980 149.730,184.911 154.746,184.962 153.284 C 185.028 151.392,188.750 155.215,188.750 157.176 C 188.750 158.204,190.297 160.897,192.188 163.161 C 194.078 165.425,197.031 169.335,198.750 171.850 C 200.469 174.365,203.056 177.930,204.500 179.774 C 208.122 184.398,207.789 187.043,202.604 194.829 C 200.141 198.528,197.358 202.961,196.420 204.681 C 195.483 206.401,193.694 208.076,192.444 208.402 C 191.135 208.745,190.455 209.730,190.838 210.730 C 191.204 211.683,190.040 214.202,188.252 216.327 C 186.463 218.453,185.000 220.992,185.000 221.971 C 185.000 222.949,184.397 223.750,183.661 223.750 C 181.776 223.750,179.423 226.322,176.971 231.065 C 175.814 233.302,173.913 236.131,172.746 237.350 C 171.579 238.569,169.685 241.197,168.536 243.188 C 167.387 245.180,165.925 246.983,165.287 247.196 C 163.581 247.765,156.269 239.888,155.441 236.589 C 154.736 233.778,153.154 232.877,152.103 234.688 C 150.990 236.604,155.073 247.232,158.076 250.235 L 161.186 253.345 157.208 258.860 C 155.020 261.893,150.236 268.471,146.577 273.476 L 139.925 282.578 134.985 278.476 C 132.268 276.221,130.035 273.373,130.023 272.148 C 129.995 269.416,133.639 267.798,134.970 269.951 C 135.726 271.175,136.143 271.184,136.879 269.994 C 139.306 266.067,129.799 264.955,127.073 268.847 C 125.302 271.375,125.145 271.286,121.153 265.484 C 118.559 261.713,117.594 259.344,118.526 259.033 C 120.922 258.234,120.207 256.250,117.524 256.250 C 114.836 256.250,112.918 251.470,114.232 248.046 C 114.810 246.541,114.406 246.270,112.492 246.877 C 108.692 248.084,109.335 244.223,113.654 239.904 C 117.389 236.169,120.000 235.210,120.000 237.574 C 120.000 238.302,120.487 238.596,121.083 238.228 C 121.679 237.860,123.172 238.671,124.402 240.029 C 129.231 245.366,130.322 240.459,126.284 231.563 C 123.112 224.575,120.341 224.240,111.751 229.805 C 107.206 232.750,106.459 233.940,105.132 240.351 C 104.309 244.325,103.099 247.245,102.443 246.840 C 100.234 245.475,101.227 248.341,103.755 250.630 C 106.635 253.236,109.304 261.821,107.941 264.091 C 107.260 265.226,107.531 265.211,108.986 264.033 C 110.674 262.666,111.521 263.328,114.981 268.721 C 117.197 272.174,119.537 275.000,120.181 275.000 C 122.065 275.000,128.706 280.310,128.083 281.318 C 127.770 281.824,128.391 282.574,129.461 282.985 C 130.532 283.396,131.050 284.313,130.611 285.022 C 130.173 285.732,130.471 286.157,131.273 285.968 C 133.812 285.371,135.821 289.682,134.172 292.188 C 133.381 293.391,132.135 294.240,131.404 294.075 C 130.673 293.910,129.407 295.023,128.590 296.549 C 127.773 298.075,126.491 299.969,125.740 300.759 C 124.989 301.548,123.569 303.357,122.585 304.780 C 121.600 306.202,120.414 307.131,119.948 306.843 C 119.483 306.555,118.190 308.414,117.076 310.972 C 115.962 313.531,113.621 317.875,111.874 320.625 C 110.127 323.375,108.369 326.325,107.968 327.180 C 107.566 328.036,106.648 328.371,105.926 327.925 C 105.129 327.432,104.989 327.720,105.569 328.659 C 107.470 331.736,95.828 345.999,92.095 345.167 C 91.528 345.041,91.381 345.451,91.768 346.077 C 92.156 346.704,91.768 347.801,90.907 348.516 C 88.805 350.260,89.664 360.853,91.979 361.742 C 92.939 362.110,93.587 361.729,93.423 360.893 C 93.241 359.964,94.632 359.375,97.007 359.376 C 100.497 359.377,101.047 358.840,102.464 354.041 C 103.330 351.106,105.703 346.923,107.737 344.746 C 109.771 342.569,112.478 338.782,113.752 336.331 C 116.071 331.872,117.795 329.951,126.563 322.053 C 129.141 319.730,131.250 317.304,131.250 316.661 C 131.250 316.018,133.048 313.048,135.246 310.059 C 137.443 307.071,139.317 303.593,139.410 302.331 C 139.722 298.098,143.653 294.958,146.692 296.515 C 148.168 297.270,150.219 298.311,151.250 298.828 C 152.281 299.345,153.004 300.325,152.855 301.005 C 152.707 301.686,153.563 301.988,154.757 301.676 C 155.951 301.363,159.364 302.872,162.340 305.028 C 165.317 307.184,169.664 309.258,172.001 309.638 C 176.593 310.383,177.110 311.139,174.688 313.565 C 173.693 314.562,174.861 314.406,177.904 313.135 C 182.850 311.070,186.707 311.529,189.718 314.540 C 192.224 317.046,194.038 316.625,193.125 313.750 C 192.486 311.737,192.900 311.250,195.251 311.250 C 205.145 311.250,211.798 295.585,205.308 287.570 C 203.010 284.732,190.000 284.608,190.000 287.424 C 190.000 288.955,194.510 292.573,195.360 291.723 C 197.588 289.495,200.398 299.831,198.396 302.887 C 195.544 307.239,189.560 308.276,190.323 304.287 C 190.653 302.561,190.191 301.111,189.190 300.727 C 188.243 300.363,187.500 300.885,187.500 301.914 C 187.500 303.554,185.085 304.406,182.028 303.845 C 181.425 303.734,178.050 303.467,174.528 303.251 C 164.985 302.665,155.820 297.500,164.324 297.500 C 166.587 297.500,166.046 290.178,163.672 288.675 C 161.310 287.181,160.000 287.207,160.000 288.750 C 160.000 289.438,160.563 290.000,161.250 290.000 C 163.277 290.000,162.677 294.664,160.546 295.482 C 156.586 297.002,147.664 290.364,149.471 287.242 C 157.033 274.177,171.250 257.954,171.250 262.390 C 171.250 264.111,180.578 265.333,186.314 264.364 C 189.326 263.855,191.173 262.924,190.872 262.067 C 190.593 261.274,189.398 260.800,188.215 261.014 C 187.032 261.227,185.263 260.737,184.282 259.923 C 183.302 259.110,182.500 258.814,182.500 259.266 C 182.500 259.718,181.359 259.477,179.965 258.731 C 178.571 257.985,177.769 256.826,178.183 256.156 C 178.597 255.486,178.472 255.019,177.905 255.117 C 172.770 256.009,172.684 254.135,177.608 248.663 C 179.730 246.304,182.332 242.688,183.389 240.625 C 184.446 238.563,187.210 234.530,189.531 231.665 C 191.851 228.799,193.750 226.064,193.750 225.588 C 193.750 225.112,196.000 222.035,198.750 218.750 C 201.500 215.465,203.750 212.007,203.750 211.065 C 203.750 210.122,204.875 208.649,206.250 207.790 C 207.625 206.931,208.750 205.731,208.750 205.122 C 208.750 204.513,210.342 202.310,212.287 200.228 L 215.824 196.442 218.225 200.249 C 222.300 206.712,229.037 216.607,229.971 217.500 C 232.941 220.339,238.807 229.056,238.589 230.309 C 238.171 232.716,241.460 238.750,243.190 238.750 C 244.036 238.750,245.573 240.859,246.605 243.438 C 247.638 246.016,249.668 249.197,251.116 250.506 C 255.262 254.254,250.684 260.865,245.963 257.948 C 245.116 257.424,244.980 257.706,245.596 258.704 C 246.348 259.920,245.354 260.177,241.376 259.798 C 237.214 259.401,236.246 259.684,236.540 261.213 C 236.941 263.300,250.722 264.011,255.635 262.199 C 257.800 261.401,259.388 263.215,267.197 275.405 C 276.528 289.972,277.590 292.500,274.375 292.500 C 273.344 292.500,271.313 293.687,269.862 295.138 C 267.668 297.332,266.722 297.547,264.237 296.415 C 260.980 294.931,259.929 290.476,263.125 291.702 C 264.200 292.115,265.000 291.727,265.000 290.794 C 265.000 288.139,263.633 287.552,261.115 289.124 C 258.602 290.694,257.846 296.794,260.000 298.125 C 262.442 299.634,261.207 301.533,258.163 300.951 C 256.294 300.594,255.381 300.855,255.849 301.612 C 256.322 302.377,255.351 302.620,253.349 302.237 C 251.548 301.893,250.373 302.092,250.737 302.681 C 251.100 303.269,250.567 303.750,249.553 303.750 C 248.538 303.750,247.476 303.052,247.191 302.199 C 246.823 301.095,246.020 301.302,244.407 302.914 C 241.898 305.424,237.247 304.925,234.135 301.813 C 233.137 300.816,231.968 300.000,231.536 300.000 C 231.104 300.000,231.425 300.675,232.250 301.500 C 234.206 303.456,234.160 305.000,232.145 305.000 C 230.268 305.000,226.250 298.662,226.250 295.702 C 226.250 294.582,228.242 292.490,230.678 291.053 C 236.633 287.540,235.571 285.700,227.332 285.257 C 218.398 284.778,215.427 287.468,216.977 294.638 C 217.540 297.243,218.034 300.097,218.074 300.978 C 218.115 301.860,220.674 304.586,223.761 307.037 C 226.948 309.566,229.199 312.323,228.969 313.415 C 228.662 314.867,229.123 315.083,230.844 314.295 C 232.098 313.721,236.594 313.223,240.834 313.188 C 245.073 313.153,248.448 312.610,248.334 311.980 C 248.219 311.351,251.386 310.158,255.372 309.330 C 259.424 308.488,263.911 306.610,265.549 305.071 C 267.161 303.557,269.243 302.203,270.177 302.062 C 271.111 301.920,272.578 301.365,273.438 300.829 C 274.297 300.292,275.000 300.134,275.000 300.477 C 275.000 300.821,276.534 300.306,278.408 299.334 C 282.281 297.324,283.908 298.303,284.418 302.951 C 284.606 304.670,286.417 308.507,288.441 311.476 C 290.465 314.445,292.504 318.445,292.972 320.364 C 293.440 322.282,294.308 323.553,294.900 323.187 C 295.492 322.821,296.981 324.054,298.208 325.928 C 299.436 327.801,301.747 330.744,303.345 332.467 C 304.943 334.190,306.250 336.308,306.250 337.175 C 306.250 338.041,306.785 338.750,307.440 338.750 C 309.352 338.750,316.064 349.291,318.944 356.818 C 320.991 362.166,322.200 363.759,324.236 363.790 C 325.687 363.812,327.942 364.637,329.247 365.625 C 331.921 367.649,334.547 366.845,332.672 364.576 C 331.247 362.854,332.277 356.250,333.969 356.250 C 334.617 356.250,334.794 355.678,334.362 354.980 C 333.931 354.281,333.110 353.998,332.540 354.351 C 330.960 355.327,324.222 347.054,321.399 340.672 C 320.020 337.552,318.400 335.000,317.800 335.000 C 316.274 335.000,311.119 325.548,312.107 324.560 C 312.552 324.114,312.331 323.750,311.615 323.750 C 310.544 323.750,308.903 319.281,308.263 314.621 C 308.187 314.069,306.969 312.381,305.555 310.871 C 304.142 309.361,301.703 306.012,300.136 303.430 C 298.569 300.847,296.781 299.047,296.162 299.429 C 294.789 300.278,289.860 292.488,290.804 290.960 C 291.175 290.359,292.126 290.084,292.917 290.347 C 293.708 290.611,294.968 289.656,295.717 288.226 C 296.466 286.795,297.785 285.782,298.647 285.973 C 299.510 286.165,300.487 285.321,300.820 284.098 C 301.489 281.638,306.653 277.403,309.492 276.986 C 310.493 276.839,312.374 274.786,313.672 272.422 C 314.969 270.059,316.642 268.266,317.390 268.438 C 318.138 268.609,318.758 267.766,318.768 266.563 C 318.799 262.947,321.720 258.370,324.226 258.011 C 325.519 257.825,327.129 257.121,327.804 256.446 C 329.510 254.740,327.659 252.172,325.360 253.054 C 323.867 253.627,323.641 253.105,324.279 250.564 C 326.493 241.741,320.050 233.365,309.765 231.696 C 304.324 230.813,301.548 233.319,300.466 240.089 C 300.034 242.790,299.077 245.000,298.340 245.000 C 297.471 245.000,297.524 245.524,298.491 246.491 C 299.647 247.647,300.802 247.377,303.616 245.297 C 311.866 239.197,318.750 241.128,318.750 249.542 C 318.750 253.522,318.618 253.636,315.620 252.270 C 313.898 251.486,312.070 251.294,311.557 251.843 C 311.044 252.393,311.328 253.093,312.188 253.400 C 314.354 254.174,314.148 259.364,311.875 261.250 C 310.844 262.106,310.000 263.635,310.000 264.648 C 310.000 267.599,305.817 273.851,304.246 273.249 C 303.457 272.946,302.881 273.577,302.968 274.652 C 303.054 275.727,302.337 276.882,301.373 277.220 C 300.126 277.658,299.812 277.104,300.284 275.299 C 300.762 273.472,300.118 272.385,297.979 271.411 C 294.364 269.764,288.750 271.548,288.750 274.344 C 288.750 276.588,290.822 276.909,291.533 274.775 C 292.294 272.492,296.250 274.615,296.250 277.308 C 296.250 280.287,293.111 283.025,291.112 281.789 C 290.164 281.204,289.941 281.394,290.506 282.307 C 290.996 283.101,290.848 283.750,290.176 283.750 C 289.504 283.750,288.134 284.065,287.131 284.450 C 285.855 284.939,282.847 281.285,277.102 272.262 C 267.822 257.688,266.528 255.000,268.791 255.000 C 270.691 255.000,273.236 251.889,275.438 246.875 C 279.347 237.974,278.663 230.435,274.672 238.438 C 273.729 240.328,272.313 241.741,271.524 241.577 C 270.735 241.414,270.402 242.093,270.784 243.088 C 271.244 244.287,270.382 245.170,268.223 245.712 C 266.433 246.161,264.450 247.451,263.817 248.577 C 262.872 250.260,262.261 249.723,260.396 245.571 C 259.147 242.791,256.297 238.210,254.063 235.391 C 251.828 232.572,250.000 229.901,250.000 229.455 C 250.000 229.009,249.431 227.965,248.736 227.135 C 245.082 222.769,241.946 218.079,239.138 212.780 C 237.416 209.532,235.219 206.425,234.254 205.875 C 233.289 205.326,232.500 203.761,232.500 202.399 C 232.500 201.036,231.678 199.606,230.673 199.220 C 229.668 198.835,228.463 197.316,227.997 195.846 C 227.530 194.376,226.066 191.709,224.743 189.920 C 221.932 186.118,224.646 179.657,230.728 175.673 C 232.434 174.555,233.462 173.046,233.013 172.319 C 232.564 171.592,233.423 169.789,234.923 168.311 C 236.423 166.834,239.801 162.701,242.432 159.128 C 245.062 155.554,247.559 152.882,247.982 153.190 C 248.404 153.498,248.485 153.392,248.162 152.954 C 247.838 152.516,248.682 150.601,250.037 148.698 C 251.392 146.796,252.500 144.724,252.500 144.095 C 252.500 143.466,253.836 141.789,255.470 140.369 C 257.103 138.949,259.474 136.035,260.739 133.893 C 262.024 131.719,264.083 130.000,265.403 130.000 C 266.774 130.000,267.521 129.343,267.182 128.438 C 266.157 125.704,268.233 122.019,271.960 119.953 C 274.325 118.642,275.581 116.940,275.598 115.021 C 275.616 113.079,276.889 111.387,279.375 110.002 C 281.438 108.853,283.132 107.006,283.140 105.898 C 283.148 104.789,284.609 102.306,286.387 100.379 C 301.736 83.736,311.687 62.778,305.387 60.361 C 302.818 59.375,287.044 67.740,286.744 70.247 C 286.469 72.550,274.618 90.223,271.757 92.598 C 270.791 93.400,270.000 94.858,270.000 95.838 C 270.000 98.090,263.801 103.929,262.357 103.037 C 261.764 102.670,261.594 103.192,261.980 104.197 C 262.865 106.503,259.470 113.206,256.921 114.184 C 255.865 114.590,255.000 115.995,255.000 117.308 C 255.000 118.620,254.080 120.458,252.955 121.391 C 250.913 123.086,246.709 128.973,241.750 137.084 C 240.306 139.445,237.939 142.208,236.489 143.223 C 235.040 144.238,234.129 145.783,234.464 146.657 C 234.799 147.530,233.651 149.582,231.912 151.215 C 230.173 152.849,228.750 154.854,228.750 155.671 C 228.750 156.488,227.062 159.280,225.000 161.875 C 222.938 164.470,221.250 167.225,221.250 167.996 C 221.250 168.768,220.125 170.101,218.750 170.960 C 217.375 171.819,216.250 173.446,216.250 174.577 C 216.250 176.198,215.712 176.012,213.708 173.702 C 212.310 172.090,211.443 170.050,211.781 169.170 C 212.119 168.289,211.251 166.767,209.853 165.787 C 208.454 164.808,206.368 162.247,205.218 160.097 C 200.615 151.496,191.097 136.429,189.353 134.981 C 188.334 134.136,187.500 132.778,187.500 131.965 C 187.500 131.151,186.067 128.548,184.316 126.180 C 182.565 123.812,181.395 120.860,181.717 119.619 C 182.118 118.072,181.340 116.997,179.242 116.200 C 176.192 115.040,173.130 109.728,175.082 108.982 C 176.542 108.423,175.022 105.004,173.304 104.981 C 170.561 104.944,168.212 102.624,168.018 99.761 C 167.736 95.614,166.175 92.399,164.843 93.222 C 164.213 93.611,162.853 91.909,161.821 89.439 C 160.789 86.968,158.229 82.159,156.132 78.751 C 154.035 75.343,152.683 71.966,153.127 71.246 C 153.572 70.527,153.191 70.093,152.280 70.282 C 151.370 70.470,150.699 69.663,150.790 68.487 C 150.881 67.310,150.319 66.467,149.540 66.612 C 148.762 66.756,148.202 65.897,148.296 64.701 C 148.391 63.505,148.008 62.811,147.445 63.159 C 146.883 63.506,146.063 63.208,145.623 62.497 C 144.658 60.935,133.179 55.000,131.125 55.000 C 130.065 55.000,129.891 57.796,130.487 65.215 " stroke="none" fill="#000000" fill-rule="evenodd"></path></g></svg>