<?xml version="1.0" standalone="no"?>
<!DOCTYPE svg PUBLIC "-//W3C//DTD SVG 20010904//EN"
 "http://www.w3.org/TR/2001/REC-SVG-20010904/DTD/svg10.dtd">
<svg version="1.0" xmlns="http://www.w3.org/2000/svg"
 width="302.000000pt" height="302.000000pt" viewBox="0 0 302.000000 302.000000"
 preserveAspectRatio="xMidYMid meet">
<metadata>
Created by potrace 1.16, written by Peter Selinger 2001-2019
</metadata>
<g transform="translate(0.000000,302.000000) scale(0.100000,-0.100000)"
fill="#000000" stroke="none">
<path d="M2130 2443 c-19 -8 -82 -26 -140 -39 -286 -64 -693 -59 -996 13 -107
25 -144 26 -144 3 0 -6 51 -62 114 -125 129 -128 219 -255 292 -409 25 -53 44
-100 41 -102 -8 -8 -126 43 -222 97 -91 50 -242 159 -366 264 -44 37 -72 53
-83 49 -22 -8 -20 -31 10 -121 103 -308 107 -801 9 -1112 -45 -142 -24 -164
68 -68 109 115 252 214 462 322 70 36 131 65 136 65 12 0 -2 -33 -62 -154 -73
-146 -172 -289 -262 -381 -92 -93 -111 -119 -103 -140 8 -22 36 -19 144 15
326 100 784 100 1080 1 69 -24 121 -27 123 -8 3 31 -8 47 -94 132 -112 111
-208 244 -282 390 -62 123 -66 139 -32 130 49 -14 214 -98 291 -149 87 -57
266 -197 305 -240 26 -28 47 -33 53 -14 2 6 -7 48 -19 92 -98 336 -106 828
-17 1132 28 98 30 122 9 131 -11 4 -45 -24 -108 -88 -111 -114 -245 -205 -421
-290 -70 -33 -129 -59 -131 -57 -8 7 74 187 118 261 64 107 126 187 225 289
56 57 83 92 80 105 -4 23 -34 26 -78 6z m-37 -87 c-10 -13 -50 -60 -89 -106
-85 -97 -184 -258 -230 -372 -34 -83 -50 -145 -42 -154 9 -8 178 46 237 76 92
46 259 162 345 239 43 39 81 70 83 68 2 -3 -1 -15 -6 -29 -5 -14 -20 -83 -32
-154 -20 -111 -23 -164 -24 -374 0 -255 11 -359 54 -528 l19 -72 -23 17 c-12
10 -50 42 -84 70 -83 71 -159 122 -272 182 -94 50 -276 118 -287 106 -3 -3 0
-34 7 -68 27 -135 158 -345 319 -511 42 -43 68 -76 57 -72 -43 15 -251 46
-382 57 -213 17 -488 -4 -672 -51 -44 -11 -82 -20 -85 -20 -3 0 34 47 82 105
146 174 242 346 276 493 18 77 19 77 -124 19 -162 -66 -322 -167 -469 -296
-36 -31 -62 -49 -59 -40 4 9 17 75 29 145 21 113 23 163 24 404 0 280 -10 388
-50 540 -8 30 -12 56 -10 58 2 3 26 -15 52 -38 73 -64 277 -196 378 -245 94
-45 235 -98 242 -92 6 6 -57 177 -87 238 -46 91 -143 229 -228 324 -44 50 -79
91 -78 92 1 1 35 -6 76 -17 149 -37 230 -45 470 -44 198 0 255 3 362 22 70 13
146 29 170 36 65 21 73 20 51 -8z"/>
<path d="M1093 2279 c143 -178 231 -342 297 -552 l18 -58 -41 7 c-130 21 -402
145 -539 245 -37 27 -69 49 -71 49 -1 0 5 -46 15 -102 38 -223 42 -534 9 -738
-5 -30 -7 -57 -5 -59 2 -3 17 7 32 20 118 108 341 217 581 284 22 7 23 5 17
-27 -30 -161 -167 -447 -278 -580 -22 -27 -38 -48 -36 -48 1 0 46 10 98 21
183 40 585 36 794 -8 l29 -6 -46 64 c-146 199 -267 454 -267 562 l0 25 66 -20
c166 -50 378 -156 523 -263 63 -47 64 -47 56 -18 -50 191 -71 579 -41 777 9
60 15 110 14 112 -2 1 -46 -26 -98 -62 -130 -89 -267 -157 -410 -205 -67 -22
-124 -39 -126 -36 -8 8 56 207 100 310 49 114 84 178 153 276 40 57 42 63 21
58 -127 -32 -226 -41 -448 -42 -186 0 -253 4 -323 18 -48 10 -95 21 -105 24
-12 5 -9 -3 11 -28z"/>
</g>
</svg>
