<?xml version="1.0" standalone="yes"?>
<svg xmlns="http://www.w3.org/2000/svg" width="2339" height="1654">
<path style="fill:#010101; stroke:none;" d="M0 0L0 1654L2339 1654L2339 0L0 0z"/>
<path style="fill:#1b171b; stroke:none;" d="M1007 617C994.227 616.728 980.727 609.491 969 604.8C943.274 594.51 917.786 583.64 893 571.247C794.987 522.241 703.523 462.061 619 392.25C588.368 366.949 557.084 342.073 528 314.975C516.157 303.941 500.78 288.366 483 296.109C464.047 304.363 471.048 334.489 476.796 349C498.284 403.239 513.769 459.839 525.2 517C565.614 719.098 567.865 935.654 527.4 1138C516.716 1191.42 502.872 1243.33 485.667 1295C481.203 1308.4 472.86 1339.5 487.329 1349.99C501.115 1359.98 516.049 1342.2 525 1334.42C554.877 1308.47 579.167 1276.37 609 1250.16C695.851 1173.84 798.671 1113.56 901 1060.74C929.024 1046.28 957.183 1031.98 986 1019.14C997.141 1014.17 1008.27 1007.38 1020 1004C1018.21 1015.95 1011.31 1027.85 1006.8 1039C995.819 1066.15 983.338 1092.82 970.247 1119C921.954 1215.59 864.3 1312.2 790.914 1392C773.502 1410.93 755.828 1429.37 737 1446.91C723.924 1459.09 709.568 1469.68 698.654 1484C689.501 1496.01 678.256 1516.45 684.613 1532C692.297 1550.79 722.882 1543.33 737 1538.31C791.848 1518.8 846.056 1502.08 903 1489.58C1103.03 1445.64 1318.56 1446.51 1519 1486.6C1572.63 1497.33 1623.33 1514.62 1675 1532C1689.65 1536.92 1718.87 1539.73 1729.15 1524.96C1736.72 1514.08 1730.28 1492.4 1722.61 1483.04C1714.54 1473.19 1702.56 1465.14 1693 1456.71C1673.6 1439.61 1653.4 1421.54 1636.42 1402C1560.14 1314.18 1490.07 1224.64 1437.75 1120C1421.15 1086.79 1399.61 1050.33 1391 1014C1436.66 1023.42 1479.57 1044.04 1521 1064.75C1613.74 1111.12 1698.97 1171.98 1779 1237.58C1811.11 1263.89 1840.75 1292.43 1872 1319.58C1880.21 1326.7 1895 1344.93 1908 1340.1C1928.84 1332.36 1911.28 1298.33 1907.28 1285C1890.57 1229.3 1877.03 1172.37 1867.41 1115C1832.97 909.584 1823.14 693.653 1861.61 488C1871.56 434.824 1885.86 383.762 1901.28 332C1906 316.141 1912.6 288.747 1896 277.703C1880.63 267.479 1867.15 283.953 1857.91 294C1831.24 323.008 1807.3 354.326 1778 380.83C1696.58 454.487 1602.92 513.289 1505 562.247C1477.72 575.885 1450.05 588.452 1422 600.421C1408.47 606.194 1394.33 613.604 1380 617C1427.55 471.105 1513.78 340.88 1613.58 226C1639.5 196.157 1670.9 171.502 1696.95 142C1705.79 131.985 1719.32 114.472 1712.91 100.015C1704.13 80.1976 1675.39 91.9424 1662 98.2198C1609.63 122.772 1548.43 133.078 1492 144C1406.82 160.488 1319.46 166.897 1233 169.015C1110.49 172.016 988.049 164.279 867 144.08C815.406 135.471 764.268 123.719 714 109.291C702.06 105.864 670.317 97.9623 662.179 112.185C655.973 123.031 664.501 142.927 672.185 150.829C699.125 178.536 731.521 201.521 759 229C837.565 307.565 902.819 399.339 953.742 498C973.763 536.792 988.561 577.581 1007 617z"/>
<path style="fill:#010101; stroke:none;" d="M1643 148C1619.1 158.583 1591.3 163.548 1566 169.873C1507.53 184.491 1447.83 194.992 1388 202.155C1171.16 228.118 942.435 224.151 733 156C745.015 173.056 763.473 186.123 777.985 201C801.617 225.225 823.671 251.314 845.714 277C914.69 357.371 974.345 452.666 1013.8 551C1024.63 577.989 1034.48 605.196 1043.02 633C1046.9 645.591 1052.73 659.762 1053 673C1038.48 672.336 1022.73 664.909 1009 660.333C976.828 649.607 944.92 637.244 914 623.306C817.194 579.666 727.038 524.692 641 462.576C615.835 444.407 590.876 425.763 567 405.919C553.164 394.419 539.518 378.97 524 370C555.446 468.343 571.017 573.292 578.089 676C583.056 748.123 586.209 820.615 583.039 893C577.35 1022.94 568.518 1155.9 533 1282C545.279 1272.96 555.759 1259.56 567 1249.09C591.311 1226.44 616.79 1204.85 643 1184.42C735.7 1112.2 836.672 1049.13 946 1005.4C980.02 991.791 1015.22 977.278 1051 969C1032.44 1115.88 950.906 1251.55 860.789 1366C838.571 1394.22 815.862 1422.3 791.831 1449C779.191 1463.05 762.843 1475.61 752 1491C883.16 1448.32 1019.01 1432.96 1156 1426.96C1268.94 1422.02 1383.18 1428.8 1495 1445.27C1549.79 1453.34 1602.89 1466.83 1657 1478C1647.88 1465.06 1634.18 1454.2 1623 1443C1604.58 1424.55 1586.66 1405.34 1569.17 1386C1492.71 1301.46 1419.02 1204.55 1376.4 1098C1360.43 1058.08 1344 1010.48 1344 967C1358.81 967.123 1374.81 973.118 1389 977.14C1419.9 985.9 1450.17 996.269 1480 1008.2C1576.68 1046.87 1668.95 1102.5 1751 1166.42C1777.45 1187.03 1803.14 1208.69 1828 1231.17C1840.87 1242.81 1852.82 1257.01 1867 1267C1862.75 1248.47 1856.05 1230.45 1851.37 1212C1840.43 1168.76 1831.26 1125.09 1824.42 1081C1806.18 963.365 1799.76 843.8 1804.96 725C1810.35 601.966 1824.23 478.985 1858 360C1839.77 369.457 1823.97 389.965 1809 403.911C1785.36 425.926 1759.98 446.114 1735 466.576C1651.04 535.358 1553.53 598.075 1451 634.692C1414.33 647.786 1372.23 662.316 1333 664C1369.1 535.841 1424.39 418.111 1504.37 311C1535.06 269.91 1568.4 231.422 1602.29 193C1611.92 182.078 1622.17 171.654 1632.09 161C1635.64 157.183 1641.75 153.163 1643 148z"/>
<path style="fill:#1b171b; stroke:none;" d="M1090 705C1052.25 695.234 1014.32 687.573 977 675.974C900.475 652.194 825.999 618.986 756 580.139C715.722 557.786 676.6 533.189 639 506.576C625.819 497.246 612.917 487.562 600 477.873C593.736 473.175 587.474 466.52 580 464C613.422 625.923 628.274 787.784 621.039 953C617.884 1025.06 613.077 1101.08 594 1171C604.552 1173.86 619.068 1155.35 627 1149C656.596 1125.32 687.832 1103.46 720 1083.42C836.571 1010.82 962.417 964.064 1094 927C1066.7 1059.34 1013.76 1184.76 943.797 1300C925.591 1329.99 906.31 1360.57 884.4 1388C870.85 1404.96 849.456 1424.02 841 1444C856.744 1441.67 872.498 1435.2 888 1431.37C916.349 1424.38 945.148 1418.9 974 1414.42C1063.44 1400.55 1154.53 1395.8 1245 1398.01C1314.07 1399.71 1383.53 1405.18 1452 1415.27C1473.05 1418.37 1494.1 1421.77 1515 1425.8C1529.18 1428.54 1543.52 1433 1558 1433C1554.79 1419.47 1538.9 1405.13 1530.63 1394C1510.81 1367.32 1491.69 1339.95 1473.69 1312C1424.94 1236.3 1379.42 1156.44 1347.58 1072C1331.04 1028.16 1315 978.282 1315 931C1351.3 938.488 1387 950.849 1422 963.308C1518.02 997.483 1608.66 1042.36 1695 1096.42C1727.01 1116.47 1757.8 1138.47 1788 1161.13C1795.4 1166.67 1802.71 1172.32 1810 1178C1812.41 1179.88 1816.26 1183.66 1819.68 1182.34C1823.55 1180.85 1820.87 1174.66 1820.15 1172C1817.48 1162.06 1815.3 1152 1812.87 1142C1802.4 1098.84 1795.08 1054.9 1788.58 1011C1769.53 882.324 1764.64 749.474 1777.17 620C1780.34 587.259 1784.57 554.326 1790.8 522C1794.78 501.408 1801.21 480.732 1804 460C1788.41 467.958 1774.13 481.717 1760 492.116C1735.26 510.319 1709.82 527.68 1684 544.308C1597.79 599.838 1505.4 646.535 1408 679C1373.98 690.339 1337.67 704.197 1302 709C1308.67 693.497 1311.59 675.326 1315.88 659C1321.28 638.497 1327.74 618.237 1334.03 598C1354.98 530.556 1381.51 464.541 1412.26 401C1434.04 355.98 1459.64 312.178 1488.03 271C1496.9 258.125 1506.02 245.312 1515.66 233C1522.85 223.823 1530.66 216.024 1535 205C1453.22 226.863 1366.22 236.315 1282 242.089C1189.88 248.406 1094.82 250.703 1003 238.576C957.664 232.588 912.481 226.99 868 215.873C857.64 213.284 847.31 210.625 837 207.849C834.528 207.183 827.954 204.385 826.176 207.604C824.813 210.071 828.215 213.325 829.595 215C835.221 221.833 841.352 228.289 847.13 235C870.548 262.199 892.717 290.575 913.28 320C968.434 398.925 1013.35 485.023 1047.58 575C1063.8 617.64 1073.97 662.5 1090 705z"/>
</svg>
